<svg width="28" height="23" viewBox="0 0 28 23" fill="none" xmlns="http://www.w3.org/2000/svg">
<path d="M27.1493 3.32153C26.1519 3.76202 25.0991 4.03733 23.9909 4.20252C25.0991 3.54178 25.9857 2.4956 26.3736 1.22918C25.3208 1.83486 24.1571 2.27536 22.8827 2.55066C21.8853 1.50449 20.4446 0.84375 18.8931 0.84375C15.901 0.84375 13.4629 3.26647 13.4629 6.2398C13.4629 6.6803 13.5183 7.06573 13.6291 7.45116C9.14087 7.23091 5.0959 5.08351 2.38078 1.7798C1.9375 2.60573 1.66044 3.48671 1.66044 4.47783C1.66044 6.34993 2.60242 8.00178 4.09851 8.99289C3.21194 8.93783 2.38078 8.71758 1.60503 8.33215V8.38721C1.60503 11.0302 3.48899 13.2326 5.98247 13.7282C5.53918 13.8383 5.04049 13.8934 4.54179 13.8934C4.20933 13.8934 3.82145 13.8383 3.48899 13.7833C4.20933 15.9307 6.20411 17.5275 8.58676 17.5275C6.7028 18.9591 4.37556 19.8401 1.82667 19.8401C1.38339 19.8401 0.940105 19.8401 0.552231 19.785C2.9903 21.3267 5.81624 22.2077 8.91923 22.2077C18.9485 22.2077 24.4342 13.9484 24.4342 6.79042C24.4342 6.57017 24.4342 6.29486 24.4342 6.07462C25.487 5.35881 26.429 4.42276 27.1493 3.32153Z" fill="#00A874"/>
</svg>
