<svg width="33" height="33" viewBox="0 0 33 33" fill="none" xmlns="http://www.w3.org/2000/svg">
<path d="M16.3233 3.38914C20.6285 3.38914 21.1384 3.40516 22.8391 3.48223C23.8617 3.49466 24.8746 3.68125 25.8337 4.03387C26.5292 4.30042 27.1609 4.70874 27.688 5.23254C28.2151 5.75635 28.626 6.38403 28.8943 7.07519C29.2491 8.02826 29.4369 9.03474 29.4494 10.0509C29.5262 11.7409 29.5431 12.2476 29.5431 16.5257C29.5431 20.8038 29.5269 21.3104 29.4494 23.0005C29.4369 24.0166 29.2491 25.0231 28.8943 25.9762C28.626 26.6673 28.2151 27.295 27.688 27.8188C27.1609 28.3426 26.5292 28.7509 25.8337 29.0175C24.8746 29.3701 23.8617 29.5567 22.8391 29.5691C21.1391 29.6454 20.6293 29.6622 16.3233 29.6622C12.0173 29.6622 11.5075 29.6462 9.80748 29.5691C8.7849 29.5567 7.77204 29.3701 6.81293 29.0175C6.1174 28.7509 5.48574 28.3426 4.95861 27.8188C4.43149 27.295 4.02059 26.6673 3.75235 25.9762C3.39749 25.0231 3.20972 24.0166 3.19721 23.0005C3.12042 21.3104 3.10353 20.8038 3.10353 16.5257C3.10353 12.2476 3.11966 11.7409 3.19721 10.0509C3.20972 9.03474 3.39749 8.02826 3.75235 7.07519C4.02059 6.38403 4.43149 5.75635 4.95861 5.23254C5.48574 4.70874 6.1174 4.30042 6.81293 4.03387C7.77204 3.68125 8.7849 3.49466 9.80748 3.48223C11.5082 3.40593 12.0181 3.38914 16.3233 3.38914V3.38914ZM16.3233 0.501953C11.9467 0.501953 11.3954 0.520265 9.67541 0.598091C8.33711 0.624542 7.01302 0.876342 5.75946 1.34278C4.68411 1.74539 3.71011 2.37631 2.90543 3.19152C2.08431 3.99143 1.44885 4.95985 1.04344 6.02911C0.574047 7.27478 0.320652 8.59054 0.294033 9.92041C0.21725 11.628 0.198822 12.1758 0.198822 16.5249C0.198822 20.874 0.21725 21.4218 0.295569 23.131C0.322188 24.4608 0.575582 25.7766 1.04497 27.0223C1.44993 28.0914 2.08487 29.0598 2.90543 29.8598C3.71056 30.6752 4.6851 31.3062 5.761 31.7086C7.01456 32.175 8.33865 32.4268 9.67694 32.4533C11.3969 32.5296 11.9459 32.5494 16.3248 32.5494C20.7038 32.5494 21.2528 32.5311 22.9727 32.4533C24.311 32.4268 25.6351 32.175 26.8887 31.7086C27.9595 31.2961 28.9319 30.6662 29.7437 29.8589C30.5555 29.0517 31.1888 28.0851 31.6032 27.0207C32.0726 25.7751 32.3259 24.4593 32.3526 23.1294C32.4294 21.4218 32.4478 20.874 32.4478 16.5249C32.4478 12.1758 32.4294 11.628 32.351 9.91888C32.3244 8.58901 32.071 7.27326 31.6016 6.02759C31.1967 4.95846 30.5617 3.99006 29.7412 3.19C28.936 2.3746 27.9615 1.74366 26.8856 1.34125C25.632 0.874815 24.308 0.623017 22.9697 0.596565C21.2512 0.520265 20.6999 0.501953 16.3233 0.501953Z" fill="#00A874"/>
<path d="M16.3196 8.29053C14.682 8.29053 13.081 8.7731 11.7194 9.67723C10.3577 10.5813 9.29636 11.8664 8.66964 13.3699C8.04293 14.8734 7.87895 16.5278 8.19845 18.1239C8.51794 19.7201 9.30657 21.1862 10.4646 22.3369C11.6226 23.4876 13.098 24.2713 14.7042 24.5888C16.3105 24.9063 17.9754 24.7433 19.4884 24.1205C21.0014 23.4978 22.2946 22.4432 23.2045 21.09C24.1143 19.7369 24.5999 18.1461 24.5999 16.5187C24.5999 14.3365 23.7276 12.2436 22.1747 10.7005C20.6218 9.15742 18.5157 8.29053 16.3196 8.29053ZM16.3196 21.8597C15.2566 21.8597 14.2174 21.5465 13.3336 20.9596C12.4497 20.3727 11.7608 19.5386 11.354 18.5626C10.9471 17.5867 10.8407 16.5128 11.0481 15.4767C11.2555 14.4407 11.7674 13.489 12.5191 12.7421C13.2708 11.9951 14.2285 11.4864 15.2711 11.2803C16.3137 11.0743 17.3944 11.18 18.3765 11.5843C19.3586 11.9885 20.1981 12.6731 20.7887 13.5514C21.3792 14.4297 21.6945 15.4624 21.6945 16.5187C21.6945 17.9352 21.1282 19.2937 20.1202 20.2954C19.1122 21.297 17.7451 21.8597 16.3196 21.8597V21.8597Z" fill="#00A874"/>
<path d="M24.9294 9.89776C25.998 9.89776 26.8643 9.03691 26.8643 7.975C26.8643 6.91309 25.998 6.05225 24.9294 6.05225C23.8607 6.05225 22.9944 6.91309 22.9944 7.975C22.9944 9.03691 23.8607 9.89776 24.9294 9.89776Z" fill="#00A874"/>
</svg>
