<svg width="33" height="33" viewBox="0 0 33 33" fill="none" xmlns="http://www.w3.org/2000/svg">
<g clip-path="url(#clip0_1_505)">
<path d="M10.3718 7.65918C11.2238 7.65918 12.0118 7.72585 12.7318 7.92318C13.3851 8.04324 14.0088 8.28962 14.5678 8.64851C15.0931 8.97785 15.4865 9.44051 15.7478 10.0338C16.0105 10.6272 16.1411 11.3538 16.1411 12.1445C16.1411 13.0685 15.9451 13.8592 15.4865 14.4525C15.0931 15.0472 14.4371 15.5738 13.6505 15.9698C14.7651 16.3005 15.6171 16.8938 16.1411 17.6845C16.6665 18.4765 16.9945 19.4658 16.9945 20.5872C16.9945 21.5112 16.7971 22.3018 16.4691 22.9618C16.1411 23.6218 15.6171 24.2152 15.0265 24.6112C14.3848 25.0357 13.6756 25.3477 12.9291 25.5338C12.1425 25.7325 11.3558 25.8645 10.5691 25.8645H1.78112V7.65918H10.3718ZM9.84645 15.0458C10.5678 15.0458 11.1585 14.8485 11.6171 14.5192C12.0758 14.1898 12.2731 13.5952 12.2731 12.8698C12.2731 12.4738 12.2065 12.0778 12.0758 11.8152C11.9451 11.5512 11.7478 11.3525 11.4865 11.1552C11.2238 11.0232 10.9611 10.8912 10.6331 10.8258C10.3051 10.7592 9.97845 10.7592 9.58379 10.7592H5.78112V15.0472H9.84779L9.84645 15.0458ZM10.0438 22.8298C10.4371 22.8298 10.8305 22.7632 11.1585 22.6978C11.4896 22.6349 11.8028 22.4997 12.0758 22.3018C12.343 22.1088 12.5665 21.8617 12.7318 21.5765C12.8625 21.2472 12.9945 20.8512 12.9945 20.3898C12.9945 19.4658 12.7318 18.8058 12.2078 18.3445C11.6825 17.9485 10.9611 17.7512 10.1091 17.7512H5.78112V22.8312H10.0438V22.8298ZM22.6998 22.7632C23.2238 23.2912 24.0105 23.5552 25.0598 23.5552C25.7811 23.5552 26.4371 23.3578 26.9611 23.0285C27.4865 22.6325 27.8145 22.2365 27.9451 21.8405H31.1585C30.6331 23.4232 29.8465 24.5445 28.7985 25.2698C27.7478 25.9298 26.5025 26.3258 24.9945 26.3258C24.0296 26.3288 23.0729 26.1496 22.1745 25.7978C21.3661 25.4946 20.6451 24.9962 20.0758 24.3472C19.4669 23.7399 19.0167 22.9922 18.7651 22.1698C18.4371 21.3125 18.3051 20.3898 18.3051 19.3338C18.3051 18.3445 18.4371 17.4218 18.7651 16.5632C19.0805 15.7366 19.5471 14.9761 20.1411 14.3205C20.7318 13.7272 21.4531 13.2005 22.2398 12.8698C23.1154 12.5179 24.0508 12.3386 24.9945 12.3418C26.1091 12.3418 27.0931 12.5405 27.9451 13.0018C28.7985 13.4632 29.4531 13.9912 29.9785 14.7832C30.5143 15.5439 30.9136 16.3921 31.1585 17.2898C31.2891 18.2125 31.3545 19.1365 31.2891 20.1912H21.7811C21.7811 21.2472 22.1745 22.2365 22.6998 22.7645V22.7632ZM26.8305 15.8378C26.3718 15.3765 25.6505 15.1125 24.7971 15.1125C24.2078 15.1125 23.7478 15.2445 23.3545 15.4418C22.9611 15.6405 22.6998 15.9045 22.4371 16.1685C22.1957 16.4235 22.036 16.7448 21.9785 17.0912C21.9118 17.4218 21.8465 17.6845 21.8465 17.9485H27.7478C27.6171 16.9592 27.2891 16.3005 26.8305 15.8378V15.8378ZM21.0598 8.91251H28.4038V10.6938H21.0611V8.91251H21.0598Z" fill="#00A874"/>
</g>
<defs>
<clipPath id="clip0_1_505">
<rect width="32" height="32" fill="white" transform="translate(0.447784 0.525879)"/>
</clipPath>
</defs>
</svg>
