<svg width="22" height="20" viewBox="0 0 22 20" fill="none" xmlns="http://www.w3.org/2000/svg">
<path d="M1.71894 0.525635H20.1805C20.4525 0.525635 20.7134 0.635665 20.9057 0.831519C21.0981 1.02737 21.2061 1.29301 21.2061 1.56999V18.2797C21.2061 18.5567 21.0981 18.8223 20.9057 19.0182C20.7134 19.214 20.4525 19.324 20.1805 19.324H1.71894C1.44692 19.324 1.18605 19.214 0.993702 19.0182C0.801357 18.8223 0.693298 18.5567 0.693298 18.2797V1.56999C0.693298 1.29301 0.801357 1.02737 0.993702 0.831519C1.18605 0.635665 1.44692 0.525635 1.71894 0.525635ZM11.0112 9.59378L4.43484 3.90726L3.10663 5.49886L11.0246 12.3446L18.8 5.49364L17.4584 3.91353L11.0123 9.59378H11.0112Z" fill="#FFB400"/>
</svg>
