<svg width="58" height="59" viewBox="0 0 58 59" fill="none" xmlns="http://www.w3.org/2000/svg">
<path fill-rule="evenodd" clip-rule="evenodd" d="M21.3111 12.311C27.2131 11.6825 32.4005 9.70632 37.9555 7.87652C39.0403 7.51902 39.6276 6.35266 39.2726 5.27062C38.9173 4.18794 37.7466 3.60077 36.6616 3.95763C31.3942 5.69285 26.4781 7.61034 20.8723 8.20849C19.7384 8.32923 18.9148 9.34779 19.0389 10.479C19.1564 11.6119 20.1774 12.4324 21.3111 12.311Z" fill="#12141D"/>
<path fill-rule="evenodd" clip-rule="evenodd" d="M14.9065 27.4358C26.4443 33.487 40.16 38.159 53.051 40.2286C54.1767 40.4085 55.2378 39.6419 55.4163 38.5182C55.5947 37.3945 54.8305 36.334 53.7048 36.1541C41.2408 34.1523 27.9756 29.634 16.824 23.781C15.8136 23.2528 14.565 23.6426 14.0374 24.6505C13.5098 25.6585 13.8962 26.9076 14.9065 27.4358Z" fill="#12141D"/>
<path fill-rule="evenodd" clip-rule="evenodd" d="M6.70786 32.9938C8.33647 41.758 13.7498 49.4399 19.7634 55.7686C20.5517 56.5929 21.8584 56.6262 22.6798 55.844C23.5074 55.0588 23.5391 53.7519 22.7572 52.9253C17.2777 47.1625 12.2495 40.2218 10.7651 32.24C10.5573 31.1201 9.47779 30.3807 8.36066 30.5882C7.2433 30.7951 6.50025 31.8745 6.70786 32.9938Z" fill="#12141D"/>
</svg>
