<svg width="20" height="20" viewBox="0 0 20 20" fill="none" xmlns="http://www.w3.org/2000/svg">
<path d="M19.4239 14.9969V18.6898C19.424 18.9542 19.3256 19.2088 19.1486 19.4022C18.9715 19.5957 18.729 19.7135 18.47 19.7321C18.0218 19.7634 17.6557 19.7801 17.3726 19.7801C8.30898 19.7801 0.962318 12.2994 0.962318 3.0704C0.962318 2.78216 0.977703 2.40932 1.0095 1.95294C1.02767 1.68918 1.14343 1.44226 1.3334 1.262C1.52337 1.08175 1.77342 0.98157 2.03309 0.98169H5.65975C5.78697 0.981559 5.9097 1.02958 6.00409 1.11643C6.09848 1.20328 6.1578 1.32276 6.17052 1.45165C6.19411 1.69185 6.21565 1.88297 6.23616 2.02813C6.43999 3.47658 6.85771 4.88532 7.47514 6.2066C7.57257 6.41547 7.50898 6.66507 7.32437 6.79875L5.11104 8.40915C6.46432 11.62 8.97724 14.1787 12.1305 15.5567L13.71 13.3072C13.7746 13.2153 13.8688 13.1494 13.9762 13.1209C14.0836 13.0925 14.1974 13.1033 14.2977 13.1516C15.5952 13.7791 16.9783 14.2034 18.4003 14.41C18.5428 14.4309 18.7305 14.4539 18.9644 14.4769C19.0908 14.4901 19.2079 14.5506 19.2929 14.6466C19.378 14.7427 19.425 14.8676 19.4249 14.9969H19.4239Z" fill="#FFB400"/>
</svg>
