<svg width="22" height="21" viewBox="0 0 22 21" fill="none" xmlns="http://www.w3.org/2000/svg">
<path d="M0.744415 11.4251H6.36185C6.53736 14.7324 7.57267 17.9329 9.36185 20.699C7.12076 20.3405 5.05949 19.236 3.50033 17.5581C1.94117 15.8801 0.972023 13.7234 0.744415 11.4251ZM0.744415 9.33638C0.972023 7.03807 1.94117 4.88134 3.50033 3.20341C5.05949 1.52548 7.12076 0.420947 9.36185 0.0625C7.57267 2.82859 6.53736 6.02906 6.36185 9.33638H0.744415ZM21.1547 9.33638H15.5372C15.3617 6.02906 14.3264 2.82859 12.5372 0.0625C14.7783 0.420947 16.8396 1.52548 18.3988 3.20341C19.9579 4.88134 20.9271 7.03807 21.1547 9.33638ZM21.1547 11.4251C20.9271 13.7234 19.9579 15.8801 18.3988 17.5581C16.8396 19.236 14.7783 20.3405 12.5372 20.699C14.3264 17.9329 15.3617 14.7324 15.5372 11.4251H21.1557H21.1547ZM8.41621 11.4251H13.4829C13.3141 14.2443 12.4422 16.9732 10.9495 19.3538C9.45693 16.9732 8.58503 14.2443 8.41621 11.4251ZM8.41621 9.33638C8.58503 6.51716 9.45693 3.7883 10.9495 1.40763C12.4422 3.7883 13.3141 6.51716 13.4829 9.33638H8.41621Z" fill="#FFB400"/>
</svg>
