<svg width="18" height="22" viewBox="0 0 18 22" fill="none" xmlns="http://www.w3.org/2000/svg">
<path d="M4.16962 15.3865C2.74548 14.3639 1.67808 12.9061 1.12206 11.2244C0.566048 9.54273 0.5503 7.72445 1.0771 6.03303C1.6039 4.34161 2.64589 2.8649 4.0521 1.81686C5.4583 0.768808 7.15569 0.203857 8.89833 0.203857C10.641 0.203857 12.3384 0.768808 13.7446 1.81686C15.1508 2.8649 16.1928 4.34161 16.7196 6.03303C17.2464 7.72445 17.2306 9.54273 16.6746 11.2244C16.1186 12.9061 15.0512 14.3639 13.6271 15.3865L15.7635 20.3577C15.7978 20.4372 15.812 20.5243 15.805 20.6109C15.7979 20.6975 15.7697 20.7809 15.7229 20.8536C15.6762 20.9263 15.6123 20.986 15.5372 21.0272C15.4621 21.0685 15.378 21.09 15.2927 21.0898H2.50295C2.41774 21.0899 2.33383 21.0684 2.25882 21.0272C2.18382 20.986 2.12007 20.9265 2.07334 20.8539C2.02661 20.7813 1.99838 20.6981 1.99119 20.6116C1.98401 20.5252 1.9981 20.4382 2.03218 20.3587L4.16859 15.3865H4.16962ZM4.91731 9.57051C5.14044 10.4733 5.65321 11.2745 6.3743 11.8468C7.09539 12.4192 7.98352 12.7301 8.89782 12.7301C9.81212 12.7301 10.7002 12.4192 11.4213 11.8468C12.1424 11.2745 12.6552 10.4733 12.8783 9.57051L10.8886 9.064C10.7782 9.51658 10.5222 9.91853 10.1614 10.2058C9.80062 10.4931 9.35581 10.6491 8.89782 10.6491C8.43984 10.6491 7.99502 10.4931 7.63424 10.2058C7.27346 9.91853 7.01747 9.51658 6.90705 9.064L4.91731 9.57051Z" fill="#FFB400"/>
</svg>
